<mxfile host="app.diagrams.net" modified="2024-07-01T05:37:13.649Z" agent="Mozilla/5.0 (X11; Linux x86_64) AppleWebKit/537.36 (KHTML, like Gecko) Chrome/126.0.0.0 Safari/537.36" version="24.6.4" etag="0-ME--pkjeMtcn92sGGs" type="github">
  <diagram name="Page-1" id="OApSsku9LYrfGgJJMa2i">
    <mxGraphModel>
      <root>
        <mxCell id="0" />
        <mxCell id="1" parent="0" />
      </root>
    </mxGraphModel>
  </diagram>
</mxfile>
